<svg xmlns="http://www.w3.org/2000/svg" viewBox="0 0 256 256">
    <path fill="none" stroke-linecap="round" stroke-linejoin="round" stroke-width="16" d="M185.2 89.6C185.5 87.5 185.6 85.4 185.6 83.2C185.6 51.4 159.8 25.6 128 25.6C96.2 25.6 70.4 51.4 70.4 83.2C70.4 85.4 70.5 87.5 70.8 89.6L70.4 89.6C59.8 89.6 51.2 98.2 51.2 108.8C51.2 119.4 59.8 128 70.4 128L185.6 128C196.2 128 204.8 119.4 204.8 108.8C204.8 98.2 196.2 89.6 185.6 89.6L185.2 89.6zM76.8 147.2L118.9 237.4C120.5 240.9 124.1 243.2 128 243.2C131.9 243.2 135.4 240.9 137.1 237.4L179.2 147.2L76.8 147.2z" />
    <style>
        path { stroke: #000; }
        @media (prefers-color-scheme: dark) {
            path { stroke: #FFF; }
        }
    </style>
</svg>
